<?xml version="1.0" standalone="no"?>
<!DOCTYPE svg PUBLIC "-//W3C//DTD SVG 20010904//EN"
 "http://www.w3.org/TR/2001/REC-SVG-20010904/DTD/svg10.dtd">
<svg version="1.0" xmlns="http://www.w3.org/2000/svg"
 width="290.000000pt" height="290.000000pt" viewBox="0 0 290.000000 290.000000"
 preserveAspectRatio="xMidYMid meet">
<metadata>
Created by potrace 1.11, written by Peter Selinger 2001-2013
</metadata>
<g transform="translate(0.000000,290.000000) scale(0.100000,-0.100000)"
fill="#000000" stroke="none">
<path d="M1395 2322 c-180 -19 -401 -131 -534 -271 -57 -60 -161 -219 -161
-246 0 -3 21 -5 46 -3 35 2 50 8 58 23 6 11 32 50 58 86 247 345 728 430 1080
192 98 -66 197 -175 249 -274 14 -25 39 -63 56 -84 32 -38 33 -38 53 -20 26
24 26 28 -13 110 -119 248 -385 445 -648 481 -58 7 -195 11 -244 6z"/>
<path d="M130 1909 c-19 -16 -44 -29 -57 -29 -17 0 -25 -8 -31 -32 -12 -44 -7
-50 35 -43 29 4 34 3 29 -12 -8 -30 -98 -378 -98 -383 -1 -21 8 -25 55 -24
l52 0 22 80 c12 43 27 98 33 121 11 42 11 43 53 42 23 -1 45 -3 49 -5 3 -3 -7
-54 -23 -116 -16 -61 -28 -113 -26 -115 4 -3 82 -6 103 -4 6 0 16 22 22 49 6
26 38 149 71 273 l59 226 -59 1 -59 1 -9 -37 c-5 -20 -18 -68 -28 -107 l-18
-70 -48 -3 c-26 -1 -47 2 -47 7 0 5 11 51 25 102 13 50 22 95 20 100 -3 4 -24
7 -48 7 -32 0 -50 -7 -77 -29z"/>
<path d="M1366 1932 c-2 -4 -12 -36 -21 -72 -38 -149 -35 -143 -48 -126 -15
20 -74 27 -107 13 -68 -29 -126 -120 -131 -207 -4 -75 0 -88 36 -124 29 -30
40 -34 75 -32 22 2 49 11 61 22 17 16 19 16 13 1 -5 -13 0 -17 22 -18 33 -1
67 2 72 6 4 4 49 174 57 215 2 14 10 41 15 60 8 24 64 239 70 266 1 5 -111 1
-114 -4z m-86 -323 c0 -79 -59 -159 -95 -129 -30 25 -15 117 26 161 24 25 31
28 49 19 15 -8 20 -21 20 -51z"/>
<path d="M1662 1915 c-13 -14 -37 -28 -53 -32 -34 -6 -34 -7 -44 -52 l-7 -34
40 6 40 7 -54 -207 c-29 -113 -51 -209 -49 -213 4 -6 104 -4 111 2 1 2 5 15 8
28 20 94 44 165 56 165 7 0 22 -12 33 -27 22 -29 25 -68 13 -160 -14 -104 37
-158 136 -145 54 7 67 20 59 60 -5 23 -13 32 -28 33 -50 3 -53 8 -52 99 1 75
-2 90 -25 130 -19 32 -23 45 -13 45 20 0 95 68 113 101 38 75 6 173 -66 201
-14 5 -63 11 -110 14 -81 4 -86 3 -108 -21z m163 -79 c23 -16 23 -78 0 -113
-16 -25 -52 -43 -84 -43 -17 0 -17 4 2 85 18 73 24 85 42 85 12 0 30 -6 40
-14z"/>
<path d="M2650 1918 c-5 -13 -27 -95 -49 -183 -23 -88 -52 -200 -65 -250 -14
-50 -21 -92 -16 -95 8 -5 44 -5 97 -1 6 1 16 24 23 51 14 60 23 68 44 38 11
-15 16 -45 16 -90 0 -56 4 -71 23 -94 20 -23 32 -27 75 -28 63 -1 77 11 68 59
-6 28 -11 35 -24 31 -28 -9 -39 6 -45 68 -3 34 -13 66 -23 77 -9 10 -13 19 -7
19 16 0 92 54 109 78 64 91 -18 189 -123 146 -40 -16 -40 -16 -9 98 14 48 22
89 18 91 -4 3 -28 5 -55 6 -40 1 -49 -2 -57 -21z m138 -276 c-4 -31 -58 -72
-95 -72 l-24 0 21 38 c38 67 105 90 98 34z"/>
<path d="M563 1749 c-69 -20 -131 -114 -140 -214 -8 -81 34 -145 99 -150 36
-3 88 19 88 37 0 7 13 0 28 -15 18 -17 39 -27 58 -27 36 0 50 9 58 38 3 12 9
31 12 42 4 15 1 18 -9 14 -28 -11 -27 16 7 145 l35 131 -60 0 c-48 0 -59 -3
-59 -17 0 -15 -1 -15 -19 1 -23 21 -57 26 -98 15z m80 -112 c15 -63 -33 -167
-76 -167 -34 0 -40 84 -11 146 25 52 77 65 87 21z"/>
<path d="M1034 1750 c-12 -5 -25 -13 -29 -19 -10 -17 -25 -13 -18 5 5 13 -3
15 -52 12 l-58 -3 -46 -175 c-26 -96 -43 -178 -39 -181 9 -6 100 0 107 7 3 3
6 10 7 17 7 44 39 149 56 185 20 42 51 61 82 49 18 -7 49 94 32 105 -13 9 -15
9 -42 -2z"/>
<path d="M2056 1745 c-85 -30 -136 -111 -137 -221 -1 -78 42 -129 117 -140
108 -15 216 104 210 231 -6 107 -90 164 -190 130z m74 -94 c20 -39 -5 -138
-44 -170 -23 -19 -53 -4 -58 29 -6 38 15 115 37 140 23 25 51 26 65 1z"/>
<path d="M2411 1745 c-39 -13 -94 -63 -116 -104 -25 -50 -30 -136 -10 -181 24
-52 86 -85 145 -75 35 6 41 11 50 43 5 21 10 39 10 42 0 3 -19 4 -42 2 -32 -3
-45 0 -55 14 -27 37 -8 130 33 165 30 25 49 28 79 13 15 -8 29 -13 31 -11 2 1
6 21 10 44 6 38 5 41 -22 48 -46 12 -77 12 -113 0z"/>
<path d="M2281 1359 c2 -11 -2 -43 -16 -109 0 -3 -7 -22 -14 -42 l-13 -38
-738 0 -739 0 -21 66 c-11 36 -20 72 -20 79 0 11 -79 29 -88 20 -5 -5 21 -121
33 -147 6 -16 1 -18 -48 -18 -86 0 -114 -10 -166 -56 -37 -33 -50 -53 -58 -90
-18 -76 0 -144 51 -193 54 -52 89 -59 305 -60 l193 -1 73 -48 c75 -51 198
-107 255 -117 18 -3 36 -8 40 -10 34 -21 289 -24 360 -5 25 7 56 14 70 17 50
9 175 68 239 112 l66 46 200 5 c188 5 202 6 238 28 20 13 50 40 65 60 24 31
27 44 27 112 0 64 -4 82 -24 111 -37 54 -85 81 -156 87 l-62 5 12 41 c7 22 15
59 18 82 6 39 5 41 -31 55 -20 7 -41 16 -45 18 -5 1 -7 -3 -6 -10z m174 -241
c120 -63 121 -235 2 -292 -32 -14 -124 -16 -972 -16 -1049 0 -980 -5 -1035 72
-65 89 -10 224 99 247 18 3 447 6 954 5 820 0 925 -2 952 -16z m-576 -359
c-11 -8 -52 -28 -90 -42 -211 -83 -421 -74 -643 26 l-49 22 119 5 c65 3 246 5
401 5 259 0 281 -1 262 -16z"/>
<path d="M569 1037 c-1 -20 -1 -121 0 -135 1 -8 10 -12 24 -10 18 2 21 8 19
31 -3 23 0 27 22 27 22 0 26 -4 26 -30 0 -25 4 -30 25 -30 24 0 25 2 25 74 0
41 -4 77 -9 80 -18 11 -41 -6 -41 -30 0 -19 -5 -24 -25 -24 -21 0 -25 5 -25
28 0 21 -5 28 -20 29 -11 1 -20 -4 -21 -10z"/>
<path d="M768 1033 c-48 -30 -49 -110 -2 -132 63 -28 124 5 124 68 0 64 -66
99 -122 64z m58 -31 c32 -22 15 -78 -22 -70 -22 4 -31 43 -14 64 14 16 20 17
36 6z"/>
<path d="M900 1036 c-16 -16 -12 -24 12 -28 19 -3 23 -10 24 -48 2 -68 2 -70
24 -70 18 0 20 7 20 60 0 53 2 60 20 60 12 0 20 7 20 18 0 14 -10 17 -55 18
-30 0 -59 -4 -65 -10z"/>
<path d="M1040 968 l0 -78 50 1 c41 2 50 5 50 21 0 12 -7 18 -24 18 -35 0 -42
18 -9 22 17 2 29 10 31 21 3 13 -3 17 -28 17 -20 0 -29 4 -24 11 3 6 17 9 30
6 19 -3 24 0 24 17 0 19 -5 22 -50 22 l-50 0 0 -78z"/>
<path d="M1183 1034 c-5 -12 -7 -94 -4 -131 1 -8 17 -13 45 -13 35 0 45 4 49
20 4 17 0 20 -23 20 -28 0 -28 1 -28 57 1 46 -2 57 -16 59 -9 1 -20 -4 -23
-12z"/>
<path d="M1368 1043 c-18 -5 -33 -37 -24 -51 3 -5 0 -24 -7 -41 -17 -45 6 -61
82 -57 67 3 92 14 68 28 -13 7 -14 14 -7 34 13 34 13 34 -15 34 -16 0 -25 -6
-25 -15 0 -8 -4 -15 -10 -15 -14 0 -12 23 3 39 10 10 7 16 -12 32 -13 10 -26
18 -30 18 -3 -1 -14 -3 -23 -6z m27 -103 c3 -5 -1 -10 -10 -10 -9 0 -13 5 -10
10 3 6 8 10 10 10 2 0 7 -4 10 -10z"/>
<path d="M1605 1036 c-39 -17 -54 -51 -43 -93 10 -38 37 -55 81 -51 46 4 50
36 5 40 -29 3 -33 7 -36 36 -3 32 3 37 56 35 6 -1 12 8 12 18 0 11 -4 19 -9
19 -5 0 -15 2 -23 5 -7 2 -27 -2 -43 -9z"/>
<path d="M1745 1026 c-8 -12 -18 -37 -21 -54 -4 -18 -11 -35 -15 -38 -5 -3 -9
-14 -9 -25 0 -23 35 -26 44 -4 3 8 16 15 30 15 13 0 26 -7 30 -15 5 -15 37
-21 48 -9 6 5 -43 128 -56 141 -15 15 -37 10 -51 -11z m32 -68 c-3 -8 -6 -5
-6 6 -1 11 2 17 5 13 3 -3 4 -12 1 -19z"/>
<path d="M1891 1034 c-32 -23 -27 -60 9 -76 38 -16 38 -28 2 -28 -21 0 -28 -5
-29 -20 -1 -16 4 -20 30 -20 72 0 106 66 47 92 -37 16 -39 28 -5 28 18 0 25 5
25 18 0 24 -48 27 -79 6z"/>
<path d="M2009 1040 c-1 -3 -2 -38 -3 -77 -1 -70 0 -73 21 -73 22 0 23 4 23
79 0 74 -2 80 -20 78 -11 -1 -21 -4 -21 -7z"/>
<path d="M2089 1035 c0 -8 -1 -35 -1 -60 0 -82 1 -85 22 -85 16 0 20 7 20 37
l0 38 25 -38 c18 -26 33 -37 50 -37 24 0 25 2 25 78 0 71 -2 78 -20 79 -19 2
-26 -21 -21 -62 1 -11 -36 30 -41 45 -2 6 -15 13 -31 15 -19 4 -27 1 -28 -10z"/>
<path d="M2311 1041 c-13 -3 -33 -19 -44 -33 -42 -56 11 -128 84 -114 39 7 71
49 64 83 -5 29 -28 63 -42 63 -6 0 -17 2 -25 4 -7 2 -24 1 -37 -3z m49 -51
c12 -23 -2 -60 -23 -60 -35 0 -49 52 -19 69 24 15 30 14 42 -9z"/>
<path d="M2432 1318 c-27 -27 -6 -68 34 -68 22 0 34 17 34 50 0 28 -46 40 -68
18z m53 -28 c0 -18 -6 -26 -23 -28 -13 -2 -25 3 -28 12 -10 26 4 48 28 44 17
-2 23 -10 23 -28z"/>
<path d="M2443 1290 c1 -11 7 -20 14 -20 6 0 11 9 10 20 -1 11 -7 20 -14 20
-6 0 -11 -9 -10 -20z"/>
</g>
</svg>
